<?xml version="1.0" encoding="UTF-8" standalone="no"?>


<!-- Uploaded to: SVG Repo, www.svgrepo.com, Generator: SVG Repo Mixer Tools -->
<svg 
   xmlns:dc="http://purl.org/dc/elements/1.1/"
   xmlns:cc="http://creativecommons.org/ns#"
   xmlns:rdf="http://www.w3.org/1999/02/22-rdf-syntax-ns#"
   xmlns:svg="http://www.w3.org/2000/svg"
   xmlns="http://www.w3.org/2000/svg"
   xmlns:sodipodi="http://sodipodi.sourceforge.net/DTD/sodipodi-0.dtd"
   xmlns:inkscape="http://www.inkscape.org/namespaces/inkscape"
   width="30"
   height="30"
   viewBox="0 0 30 30"
   version="1.1"
   id="svg822"
   inkscape:version="0.92.4 (f8dce91, 2019-08-02)"
   sodipodi:docname="bold.svg">
  <defs
     id="defs816" />
  <sodipodi:namedview
     id="base"
     pagecolor="#ffffff"
     bordercolor="#666666"
     borderopacity="1.0"
     inkscape:pageopacity="0.0"
     inkscape:pageshadow="2"
     inkscape:zoom="45.254834"
     inkscape:cx="9.9606826"
     inkscape:cy="19.813158"
     inkscape:document-units="px"
     inkscape:current-layer="layer1"
     showgrid="true"
     units="px"
     inkscape:window-width="1366"
     inkscape:window-height="713"
     inkscape:window-x="0"
     inkscape:window-y="0"
     inkscape:window-maximized="1"
     showguides="false">
    <inkscape:grid
       type="xygrid"
       id="grid816" />
  </sodipodi:namedview>
  <metadata
     id="metadata819">
    <rdf:RDF>
      <cc:Work
         rdf:about="">
        <dc:format>image/svg+xml</dc:format>
        <dc:type
           rdf:resource="http://purl.org/dc/dcmitype/StillImage" />
        <dc:title>
</dc:title>
      </cc:Work>
    </rdf:RDF>
  </metadata>
  <g
     inkscape:label="Layer 1"
     inkscape:groupmode="layer"
     id="layer1"
     transform="translate(0,-289.0625)">
    <g
       aria-label="B"
       transform="matrix(1.0198402,0,0,0.98054578,0.09141379,0)"
       style="font-style:normal;font-weight:normal;font-size:26.48935509px;line-height:1.25;font-family:sans-serif;letter-spacing:0px;word-spacing:0px;fill:#000000;fill-opacity:1;stroke:none;stroke-width:1"
       id="text925">
      <path
         d="m 17.529303,309.55212 q 1.827765,0.34436 2.966808,1.35096 1.165531,1.00659 1.165531,3.01978 0,2.94032 -2.119148,4.15883 -2.092659,1.19202 -5.880637,1.19202 H 7.7547308 v -18.35712 h 5.1919132 q 3.867446,0 5.907127,1.11255 2.03968,1.08607 2.03968,3.57606 0,1.61586 -0.980106,2.62245 -0.953617,0.98011 -2.384042,1.32447 z m -5.430318,-5.56277 v 4.26479 h 1.615851 q 2.754893,0 2.754893,-2.22511 0,-1.11255 -0.741702,-1.56287 -0.741702,-0.47681 -2.357553,-0.47681 z m 1.589361,12.13213 q 1.721808,0 2.595957,-0.5033 0.900638,-0.52979 0.900638,-1.93372 0,-2.54298 -3.178722,-2.54298 h -1.907234 v 4.98 z"
         style="font-style:normal;font-variant:normal;font-weight:bold;font-stretch:normal;font-family:FiraGO;-inkscape-font-specification:'FiraGO Bold';stroke-width:1.48117137"
         id="path946"
         inkscape:connector-curvature="0" />
    </g>
  </g>
</svg>